<svg width="87" height="61" viewBox="0 0 87 61" fill="none" xmlns="http://www.w3.org/2000/svg">
<path d="M65.25 4.35714C65.25 1.95084 63.3024 0 60.9 0H4.35C1.94765 0 0 1.95084 0 4.35714C0 6.76344 1.94765 8.71428 4.35 8.71428H60.9C63.3024 8.71428 65.25 6.76327 65.25 4.35714ZM4.35 26.1429H82.65C85.0524 26.1429 87 28.0939 87 30.5C87 32.9063 85.0524 34.8571 82.65 34.8571H4.35C1.94765 34.8571 0 32.9063 0 30.5C0 28.0939 1.94765 26.1429 4.35 26.1429ZM4.35 52.2857H43.5C45.9022 52.2857 47.85 54.2366 47.85 56.6429C47.85 59.049 45.9022 61 43.5 61H4.35C1.94765 61 0 59.049 0 56.6429C0 54.2366 1.94765 52.2857 4.35 52.2857Z" fill="white"/>
</svg>
