<svg width="70" height="57" viewBox="0 0 70 57" fill="none" xmlns="http://www.w3.org/2000/svg">
<path d="M7.81775 41.5549C6.32874 41.5549 5.12195 42.7617 5.12195 44.2507V53.5818C5.12195 55.0702 6.32874 56.2776 7.81775 56.2776C9.30675 56.2776 10.5135 55.0702 10.5135 53.5818V44.2507C10.5135 42.7617 9.30675 41.5549 7.81775 41.5549Z" fill="#6C7278"/>
<path d="M25.6101 27.8411C24.1211 27.8411 22.9143 29.0479 22.9143 30.5369V53.5812C22.9143 55.0702 24.1211 56.277 25.6101 56.277C27.0991 56.277 28.3059 55.0702 28.3059 53.5812V30.5369C28.3059 29.0479 27.0991 27.8411 25.6101 27.8411Z" fill="#6C7278"/>
<path d="M43.4023 36.9473C41.9133 36.9473 40.7065 38.1541 40.7065 39.6431V53.5812C40.7065 55.0702 41.9133 56.277 43.4023 56.277C44.8913 56.277 46.0981 55.0702 46.0981 53.5812V39.6431C46.0981 38.1541 44.8913 36.9473 43.4023 36.9473Z" fill="#6C7278"/>
<path d="M61.1946 21.4202C59.7056 21.4202 58.4988 22.6275 58.4988 24.116V53.5812C58.4988 55.0702 59.7056 56.277 61.1946 56.277C62.6836 56.277 63.8904 55.0702 63.8904 53.5812V24.116C63.8904 22.6275 62.6836 21.4202 61.1946 21.4202Z" fill="#6C7278"/>
<path d="M61.1946 0.722534C56.8839 0.722534 53.3768 4.2297 53.3768 8.54034C53.3768 9.52442 53.5611 10.4653 53.8944 11.333L47.157 17.2127C46.0423 16.5993 44.7623 16.2497 43.4023 16.2497C41.3589 16.2497 39.4971 17.0384 38.1029 18.3263L33.3689 15.9038C33.4063 15.5942 33.4279 15.2804 33.4279 14.9608C33.4279 10.6501 29.9207 7.14295 25.6101 7.14295C21.2994 7.14295 17.7923 10.6501 17.7923 14.9608C17.7923 15.7774 17.9186 16.5651 18.1519 17.3054L11.981 22.062C10.7742 21.3001 9.34736 20.8568 7.81781 20.8568C3.50717 20.8568 0 24.3639 0 28.6746C0 32.9852 3.50717 36.4924 7.81781 36.4924C12.1285 36.4924 15.6356 32.9852 15.6356 28.6746C15.6356 27.8579 15.5093 27.0703 15.276 26.33L21.4469 21.5734C22.6536 22.3352 24.0805 22.7786 25.6101 22.7786C27.6535 22.7786 29.5153 21.9898 30.9095 20.7014L35.6435 23.1245C35.6061 23.4336 35.5845 23.7479 35.5845 24.0675C35.5845 28.3781 39.0917 31.8853 43.4023 31.8853C47.713 31.8853 51.2201 28.3781 51.2201 24.0675C51.2201 23.0834 51.0359 22.1425 50.7026 21.2748L57.44 15.3951C58.5551 16.0085 59.8346 16.3582 61.1946 16.3582C65.5052 16.3582 69.0124 12.851 69.0124 8.54034C69.0124 4.2297 65.5052 0.722534 61.1946 0.722534ZM7.81781 31.1008C6.47992 31.1008 5.39159 30.0125 5.39159 28.6746C5.39159 27.3367 6.47992 26.2484 7.81781 26.2484C9.15571 26.2484 10.244 27.3367 10.244 28.6746C10.244 30.0125 9.15571 31.1008 7.81781 31.1008ZM25.6101 17.387C24.2722 17.387 23.1839 16.2987 23.1839 14.9608C23.1839 13.6229 24.2722 12.5345 25.6101 12.5345C26.948 12.5345 28.0363 13.6229 28.0363 14.9608C28.0363 16.2987 26.948 17.387 25.6101 17.387ZM43.4023 26.4937C42.0644 26.4937 40.9761 25.4049 40.9761 24.0675C40.9761 22.7296 42.0644 21.6413 43.4023 21.6413C44.7402 21.6413 45.8286 22.7296 45.8286 24.0675C45.8286 25.4049 44.7402 26.4937 43.4023 26.4937ZM61.1946 10.9666C59.8567 10.9666 58.7684 9.87824 58.7684 8.54034C58.7684 7.20245 59.8567 6.11413 61.1946 6.11413C62.5325 6.11413 63.6208 7.20245 63.6208 8.54034C63.6208 9.87824 62.5325 10.9666 61.1946 10.9666Z" fill="#6C7278"/>
</svg>
