<svg width="57" height="57" viewBox="0 0 57 57" fill="none" xmlns="http://www.w3.org/2000/svg">
<path d="M53.8333 8.5H2.83333C2.08189 8.5 1.36122 8.79851 0.829864 9.32986C0.298511 9.86122 0 10.5819 0 11.3333C0 12.0848 0.298511 12.8054 0.829864 13.3368C1.36122 13.8682 2.08189 14.1667 2.83333 14.1667H8.5V48.1667C8.50068 50.4208 9.39643 52.5824 10.9903 54.1763C12.5843 55.7702 14.7459 56.666 17 56.6667H39.6667C41.9208 56.6661 44.0825 55.7703 45.6764 54.1764C47.2703 52.5825 48.1661 50.4208 48.1667 48.1667V14.1667H53.8333C54.5848 14.1667 55.3055 13.8682 55.8368 13.3368C56.3682 12.8054 56.6667 12.0848 56.6667 11.3333C56.6667 10.5819 56.3682 9.86122 55.8368 9.32986C55.3055 8.79851 54.5848 8.5 53.8333 8.5ZM25.5 39.6667C25.5 40.4181 25.2015 41.1388 24.6701 41.6701C24.1388 42.2015 23.4181 42.5 22.6667 42.5C21.9152 42.5 21.1946 42.2015 20.6632 41.6701C20.1318 41.1388 19.8333 40.4181 19.8333 39.6667V25.5C19.8333 24.7486 20.1318 24.0279 20.6632 23.4965C21.1946 22.9652 21.9152 22.6667 22.6667 22.6667C23.4181 22.6667 24.1388 22.9652 24.6701 23.4965C25.2015 24.0279 25.5 24.7486 25.5 25.5V39.6667ZM36.8333 39.6667C36.8333 40.4181 36.5348 41.1388 36.0035 41.6701C35.4721 42.2015 34.7514 42.5 34 42.5C33.2486 42.5 32.5279 42.2015 31.9965 41.6701C31.4652 41.1388 31.1667 40.4181 31.1667 39.6667V25.5C31.1667 24.7486 31.4652 24.0279 31.9965 23.4965C32.5279 22.9652 33.2486 22.6667 34 22.6667C34.7514 22.6667 35.4721 22.9652 36.0035 23.4965C36.5348 24.0279 36.8333 24.7486 36.8333 25.5V39.6667Z" fill="#6C7278"/>
<path d="M22.6666 5.66667H33.9999C34.7514 5.66667 35.472 5.36816 36.0034 4.8368C36.5347 4.30545 36.8333 3.58478 36.8333 2.83333C36.8333 2.08189 36.5347 1.36122 36.0034 0.829864C35.472 0.298511 34.7514 0 33.9999 0H22.6666C21.9151 0 21.1945 0.298511 20.6631 0.829864C20.1318 1.36122 19.8333 2.08189 19.8333 2.83333C19.8333 3.58478 20.1318 4.30545 20.6631 4.8368C21.1945 5.36816 21.9151 5.66667 22.6666 5.66667Z" fill="#6C7278"/>
</svg>
