<svg width="60" height="60" viewBox="0 0 60 60" fill="none" xmlns="http://www.w3.org/2000/svg">
<path d="M47.4998 29.9981C46.1174 29.9981 45 31.1182 45 32.4979V52.4981C45 53.8755 43.8799 54.9979 42.5002 54.9979H7.5C6.11984 54.9979 5.00015 53.8755 5.00015 52.4981V17.4979C5.00015 16.1205 6.11984 14.9981 7.5 14.9981H27.5002C28.8826 14.9981 30 13.8779 30 12.4982C30 11.1181 28.8826 9.99792 27.5002 9.99792H7.5C3.36502 9.99792 0 13.3629 0 17.4979V52.4981C0 56.6331 3.36502 59.9981 7.5 59.9981H42.5002C46.6351 59.9981 50.0002 56.6331 50.0002 52.4981V32.4979C50.0002 31.1155 48.8823 29.9981 47.4998 29.9981Z" fill="#6C7278"/>
<path d="M23.4398 27.7206C23.265 27.8955 23.1473 28.118 23.0974 28.3578L21.33 37.1982C21.2476 37.6079 21.3776 38.0304 21.6724 38.3279C21.91 38.5655 22.23 38.6928 22.5577 38.6928C22.6374 38.6928 22.7202 38.6855 22.8026 38.6681L31.6402 36.9006C31.8851 36.8503 32.1076 36.7331 32.2802 36.5578L52.0601 16.7778L43.2225 7.94067L23.4398 27.7206Z" fill="#6C7278"/>
<path d="M58.1699 1.82819C55.7328 -0.609398 51.7676 -0.609398 49.3323 1.82819L45.8726 5.28797L54.7101 14.1256L58.1699 10.6653C59.35 9.48795 60.0001 7.91782 60.0001 6.2479C60.0001 4.57798 59.35 3.00785 58.1699 1.82819Z" fill="#6C7278"/>
</svg>
