<svg width="49" height="49" viewBox="0 0 49 49" fill="none" xmlns="http://www.w3.org/2000/svg">
<path d="M1.01063 5.89073C-0.336872 4.54316 -0.336872 2.35827 1.01063 1.0107C2.35813 -0.336901 4.54312 -0.336901 5.89062 1.0107L24.4999 19.6201L43.1093 1.0107C44.4568 -0.336901 46.6417 -0.336901 47.9893 1.0107C49.3369 2.35827 49.3369 4.54316 47.9893 5.89073L29.3799 24.5001L47.9893 43.1094C49.3369 44.4569 49.3369 46.6419 47.9893 47.9894C46.6417 49.3369 44.4568 49.3369 43.1093 47.9894L24.4999 29.38L5.89062 47.9894C4.54312 49.3369 2.35813 49.3369 1.01063 47.9894C-0.336872 46.6419 -0.336872 44.4569 1.01063 43.1094L19.62 24.5001L1.01063 5.89073Z" fill="#6C7278"/>
</svg>
