<svg width="54" height="54" viewBox="0 0 54 54" fill="none" xmlns="http://www.w3.org/2000/svg">
<g clip-path="url(#clip0_11_101)">
<path d="M20.8124 0H3.93736C1.76619 0 0 1.76619 0 3.93736V14.0624C0 16.2339 1.76619 18.0001 3.93736 18.0001H20.8124C22.9839 18.0001 24.7501 16.2339 24.7501 14.0624V3.93736C24.7501 1.76619 22.9839 0 20.8124 0Z" fill="white"/>
<path d="M20.8124 22.4999H3.93736C1.76619 22.4999 0 24.2661 0 26.4377V50.0627C0 52.2338 1.76619 54 3.93736 54H20.8124C22.9839 54 24.7501 52.2338 24.7501 50.0627V26.4377C24.7501 24.2661 22.9839 22.4999 20.8124 22.4999Z" fill="white"/>
<path d="M50.0627 35.9999H33.1877C31.0161 35.9999 29.2499 37.7661 29.2499 39.9377V50.0627C29.2499 52.2338 31.0161 54 33.1877 54H50.0627C52.2338 54 54 52.2338 54 50.0627V39.9377C54 37.7661 52.2338 35.9999 50.0627 35.9999Z" fill="white"/>
<path d="M50.0627 0H33.1877C31.0161 0 29.2499 1.76619 29.2499 3.93736V27.5624C29.2499 29.7339 31.0161 31.5001 33.1877 31.5001H50.0627C52.2338 31.5001 54 29.7339 54 27.5624V3.93736C54 1.76619 52.2338 0 50.0627 0Z" fill="white"/>
</g>
<defs>
<clipPath id="clip0_11_101">
<rect width="54" height="54" fill="white"/>
</clipPath>
</defs>
</svg>
