<svg width="41" height="54" viewBox="0 0 41 54" fill="none" xmlns="http://www.w3.org/2000/svg">
<path d="M35.875 20.25H34.1667V13.5C34.1667 6.05475 28.0372 0 20.5 0C12.9628 0 6.83333 6.05475 6.83333 13.5V20.25H5.125C2.30056 20.25 0 22.5203 0 25.3125V48.9375C0 51.7298 2.30056 54 5.125 54H35.875C38.6994 54 41 51.7298 41 48.9375V25.3125C41 22.5203 38.6994 20.25 35.875 20.25ZM11.3889 13.5C11.3889 8.5365 15.4752 4.5 20.5 4.5C25.5248 4.5 29.6111 8.5365 29.6111 13.5V20.25H11.3889V13.5ZM22.7778 37.6245V42.75C22.7778 43.992 21.7596 45 20.5 45C19.2404 45 18.2222 43.992 18.2222 42.75V37.6245C16.8669 36.8438 15.9444 35.4082 15.9444 33.75C15.9444 31.2682 17.9876 29.25 20.5 29.25C23.0124 29.25 25.0556 31.2682 25.0556 33.75C25.0556 35.4082 24.1331 36.8438 22.7778 37.6245Z" fill="white"/>
</svg>
