<svg width="50" height="55" viewBox="0 0 50 55" fill="none" xmlns="http://www.w3.org/2000/svg">
<path fill-rule="evenodd" clip-rule="evenodd" d="M24.183 46.2402V48.9812C24.183 51.1792 23.0875 53.0768 21.1839 54.1758C20.268 54.7045 19.2458 54.9995 18.186 55C17.1252 55.0005 16.1033 54.705 15.1867 54.1758L2.99911 47.1392C1.09527 46.0401 0 44.143 0 41.9446V5.99821C0 2.69059 2.6907 0 5.99821 0H32.8398C36.1475 0 38.8384 2.69038 38.8384 5.99821V13.5756C38.8384 14.6626 37.9558 15.5452 36.8688 15.5452C35.7815 15.5452 34.8997 14.6627 34.8997 13.5756V5.99821C34.8997 4.86244 33.9755 3.93829 32.8398 3.93829H9.31958L21.1839 10.7893C23.0869 11.8882 24.183 13.7853 24.183 15.9828V42.3015H32.8398C33.9754 42.3015 34.8997 41.3779 34.8997 40.242V33.5995C34.8997 32.5117 35.781 31.6299 36.8688 31.6299C37.9563 31.6299 38.8384 32.5119 38.8384 33.5995V40.242C38.8384 43.5498 36.1475 46.2402 32.8398 46.2402H24.183ZM42.4321 25.0892L40.2631 27.2581C39.4941 28.0272 39.4943 29.2739 40.2631 30.0431C40.6333 30.4134 41.1322 30.6193 41.6557 30.6193C42.1797 30.6193 42.678 30.414 43.0487 30.0431L48.5787 24.5121C49.3475 23.7432 49.3476 22.4971 48.5787 21.7282L43.0487 16.1981C42.2796 15.429 41.0327 15.4293 40.2633 16.198C39.4944 16.9663 39.4947 18.2136 40.2633 18.9821L42.4321 21.1505H27.9022C26.8142 21.1505 25.9331 22.0322 25.9331 23.1202C25.9331 24.2081 26.8143 25.0893 27.9022 25.0893H42.4321V25.0892Z" fill="#767676"/>
</svg>
