<svg width="88" height="88" viewBox="0 0 88 88" fill="none" xmlns="http://www.w3.org/2000/svg">
<path d="M44 0C35.2976 0 26.7907 2.58055 19.5549 7.41534C12.3192 12.2501 6.67958 19.122 3.34932 27.1619C0.0190647 35.2019 -0.852282 44.0488 0.845468 52.584C2.54322 61.1191 6.73381 68.9592 12.8873 75.1127C19.0408 81.2662 26.8809 85.4568 35.416 87.1546C43.9512 88.8523 52.7981 87.981 60.8381 84.6507C68.8781 81.3204 75.7499 75.6809 80.5847 68.4451C85.4195 61.2093 88 52.7024 88 44C87.9863 32.3347 83.3461 21.1511 75.0975 12.9025C66.8489 4.65388 55.6653 0.0137619 44 0ZM64 48H48V64C48 65.0609 47.5786 66.0783 46.8284 66.8284C46.0783 67.5786 45.0609 68 44 68C42.9392 68 41.9217 67.5786 41.1716 66.8284C40.4215 66.0783 40 65.0609 40 64V48H24C22.9392 48 21.9217 47.5786 21.1716 46.8284C20.4214 46.0783 20 45.0609 20 44C20 42.9391 20.4214 41.9217 21.1716 41.1716C21.9217 40.4214 22.9392 40 24 40H40V24C40 22.9391 40.4215 21.9217 41.1716 21.1716C41.9217 20.4214 42.9392 20 44 20C45.0609 20 46.0783 20.4214 46.8284 21.1716C47.5786 21.9217 48 22.9391 48 24V40H64C65.0609 40 66.0783 40.4214 66.8285 41.1716C67.5786 41.9217 68 42.9391 68 44C68 45.0609 67.5786 46.0783 66.8285 46.8284C66.0783 47.5786 65.0609 48 64 48Z" fill="#253368"/>
</svg>
