<svg width="83" height="83" viewBox="0 0 83 83" fill="none" xmlns="http://www.w3.org/2000/svg">
<path d="M41.1073 43.8187C37.8573 43.8187 34.6804 42.855 31.9782 41.0494C29.2759 39.2438 27.1698 36.6775 25.9261 33.675C24.6824 30.6724 24.357 27.3685 24.991 24.181C25.6251 20.9935 27.1901 18.0656 29.4881 15.7675C31.7862 13.4695 34.7141 11.9045 37.9016 11.2705C41.0891 10.6364 44.393 10.9618 47.3955 12.2055C50.3981 13.4492 52.9644 15.5554 54.77 18.2576C56.5755 20.9598 57.5393 24.1368 57.5393 27.3867C57.5393 31.7447 55.808 35.9243 52.7265 39.0059C49.6449 42.0875 45.4653 43.8187 41.1073 43.8187ZM41.1073 16.432C38.9407 16.432 36.8227 17.0745 35.0212 18.2782C33.2197 19.482 31.8156 21.1928 30.9865 23.1945C30.1574 25.1962 29.9404 27.3989 30.3631 29.5238C30.7858 31.6488 31.8291 33.6008 33.3612 35.1328C34.8932 36.6649 36.8451 37.7082 38.9701 38.1309C41.0951 38.5536 43.2977 38.3366 45.2994 37.5075C47.3011 36.6784 49.012 35.2743 50.2157 33.4728C51.4195 31.6713 52.0619 29.5533 52.0619 27.3867C52.0619 24.4813 50.9078 21.695 48.8534 19.6406C46.799 17.5862 44.0126 16.432 41.1073 16.432Z" fill="white"/>
<path d="M41.1074 82.1601C35.0342 82.156 29.0375 80.8055 23.549 78.2056C18.0604 75.6058 13.2166 71.8214 9.36624 67.1248L7.94214 65.3721L9.36624 63.6467C13.2199 58.9562 18.0651 55.1781 23.5535 52.5841C29.0418 49.9902 35.0369 48.6448 41.1074 48.6448C47.1778 48.6448 53.1729 49.9902 58.6612 52.5841C64.1496 55.1781 68.9949 58.9562 72.8485 63.6467L74.2726 65.3721L72.8485 67.1248C68.9981 71.8214 64.1543 75.6058 58.6657 78.2056C53.1772 80.8055 47.1805 82.156 41.1074 82.1601ZM15.1174 65.3994C18.4483 68.9652 22.4766 71.8083 26.9522 73.752C31.4278 75.6958 36.2552 76.6988 41.1347 76.6988C46.0142 76.6988 50.8417 75.6958 55.3173 73.752C59.7929 71.8083 63.8212 68.9652 67.1521 65.3994C63.8212 61.8336 59.7929 58.9906 55.3173 57.0468C50.8417 55.1031 46.0142 54.1 41.1347 54.1C36.2552 54.1 31.4278 55.1031 26.9522 57.0468C22.4766 58.9906 18.4483 61.8336 15.1174 65.3994Z" fill="white"/>
<path d="M41.1074 82.16C31.7761 82.1662 22.7206 78.9953 15.4316 73.1693C8.14246 67.3432 3.05407 59.2091 1.00385 50.1058C-1.04636 41.0025 0.0637745 31.4724 4.15155 23.0841C8.23933 14.6958 15.0612 7.9491 23.4942 3.95448C31.9273 -0.0401331 41.4691 -1.04464 50.5492 1.10628C59.6292 3.2572 67.7064 8.43538 73.4514 15.7886C79.1963 23.1417 82.2667 32.2317 82.1571 41.5624C82.0476 50.8931 78.7646 59.9085 72.8485 67.1247C68.9981 71.8213 64.1543 75.6057 58.6658 78.2055C53.1772 80.8053 47.1805 82.1559 41.1074 82.16ZM41.1074 5.47736C34.0659 5.47736 27.1824 7.56542 21.3276 11.4775C15.4728 15.3896 10.9095 20.9499 8.21484 27.4555C5.52016 33.961 4.81511 41.1195 6.18885 48.0257C7.56258 54.932 10.9534 61.2757 15.9325 66.2549C20.9116 71.234 27.2554 74.6248 34.1617 75.9985C41.0679 77.3723 48.2264 76.6672 54.7319 73.9725C61.2375 71.2779 66.7978 66.7146 70.7099 60.8597C74.622 55.0049 76.71 48.1215 76.71 41.08C76.71 31.6376 72.959 22.5819 66.2822 15.9051C59.6055 9.22834 50.5498 5.47736 41.1074 5.47736Z" fill="white"/>
<path d="M11.4751 65.3994C11.4751 65.3994 39.0534 96.2093 67.1247 68.4667L70.7398 65.3994C70.7398 65.3994 47.2968 41.08 23.4978 55.6771L11.4751 65.3994Z" fill="white"/>
<path d="M41.1074 41.08C48.67 41.08 54.8007 34.9493 54.8007 27.3867C54.8007 19.8241 48.67 13.6934 41.1074 13.6934C33.5448 13.6934 27.4141 19.8241 27.4141 27.3867C27.4141 34.9493 33.5448 41.08 41.1074 41.08Z" fill="white"/>
</svg>
