<svg width="65" height="65" viewBox="0 0 65 65" fill="none" xmlns="http://www.w3.org/2000/svg">
<path fill-rule="evenodd" clip-rule="evenodd" d="M45.5 65H58.5C62.0902 65 65 62.0902 65 58.5V45.5C65 44.304 64.0293 43.3333 62.8333 43.3333C61.6373 43.3333 60.6667 44.304 60.6667 45.5V58.5C60.6667 59.696 59.696 60.6667 58.5 60.6667H45.5C44.304 60.6667 43.3333 61.6373 43.3333 62.8333C43.3333 64.0293 44.304 65 45.5 65ZM19.5 60.6667H6.5C5.304 60.6667 4.33333 59.696 4.33333 58.5V45.5C4.33333 44.304 3.36267 43.3333 2.16667 43.3333C0.970667 43.3333 0 44.304 0 45.5V58.5C0 62.0902 2.90983 65 6.5 65H19.5C20.696 65 21.6667 64.0293 21.6667 62.8333C21.6667 61.6373 20.696 60.6667 19.5 60.6667ZM30.3333 41.1667V54.1667C30.3333 55.3627 31.304 56.3333 32.5 56.3333C33.696 56.3333 34.6667 55.3627 34.6667 54.1667V41.1667C34.6667 39.9707 33.696 39 32.5 39C31.304 39 30.3333 39.9707 30.3333 41.1667ZM26 41.1667C26 39.9707 25.0293 39 23.8333 39H10.8333C9.63733 39 8.66667 39.9707 8.66667 41.1667V54.1667C8.66667 55.3627 9.63733 56.3333 10.8333 56.3333H23.8333C25.0293 56.3333 26 55.3627 26 54.1667V41.1667ZM56.3333 41.1667C56.3333 39.9707 55.3627 39 54.1667 39H41.1667C39.9707 39 39 39.9707 39 41.1667V54.1667C39 55.3627 39.9707 56.3333 41.1667 56.3333H54.1667C55.3627 56.3333 56.3333 55.3627 56.3333 54.1667V41.1667ZM21.6667 43.3333V52H13V43.3333H21.6667ZM52 43.3333V52H43.3333V43.3333H52ZM30.3333 34.6667H32.5C33.696 34.6667 34.6667 33.696 34.6667 32.5C34.6667 31.304 33.696 30.3333 32.5 30.3333H30.3333C29.1373 30.3333 28.1667 31.304 28.1667 32.5C28.1667 33.696 29.1373 34.6667 30.3333 34.6667ZM10.8333 34.6667H21.6667C22.8627 34.6667 23.8333 33.696 23.8333 32.5C23.8333 31.304 22.8627 30.3333 21.6667 30.3333H10.8333C9.63733 30.3333 8.66667 31.304 8.66667 32.5C8.66667 33.696 9.63733 34.6667 10.8333 34.6667ZM49.8333 30.3333H52V32.5C52 33.696 52.9707 34.6667 54.1667 34.6667C55.3627 34.6667 56.3333 33.696 56.3333 32.5V28.1667C56.3333 26.9707 55.3627 26 54.1667 26H49.8333C48.6373 26 47.6667 26.9707 47.6667 28.1667C47.6667 29.3627 48.6373 30.3333 49.8333 30.3333ZM43.3333 32.5V21.6667H45.5C46.696 21.6667 47.6667 20.696 47.6667 19.5C47.6667 18.304 46.696 17.3333 45.5 17.3333H41.1667C39.9707 17.3333 39 18.304 39 19.5V32.5C39 33.696 39.9707 34.6667 41.1667 34.6667C42.3627 34.6667 43.3333 33.696 43.3333 32.5ZM30.3333 19.5V23.8333C30.3333 25.0293 31.304 26 32.5 26C33.696 26 34.6667 25.0293 34.6667 23.8333V19.5C34.6667 18.304 33.696 17.3333 32.5 17.3333C31.304 17.3333 30.3333 18.304 30.3333 19.5ZM26 10.8333C26 9.63733 25.0293 8.66667 23.8333 8.66667H10.8333C9.63733 8.66667 8.66667 9.63733 8.66667 10.8333V23.8333C8.66667 25.0293 9.63733 26 10.8333 26H23.8333C25.0293 26 26 25.0293 26 23.8333V10.8333ZM19.5 0H6.5C2.90983 0 0 2.90983 0 6.5V19.5C0 20.696 0.970667 21.6667 2.16667 21.6667C3.36267 21.6667 4.33333 20.696 4.33333 19.5V6.5C4.33333 5.304 5.304 4.33333 6.5 4.33333H19.5C20.696 4.33333 21.6667 3.36267 21.6667 2.16667C21.6667 0.970667 20.696 0 19.5 0ZM21.6667 13V21.6667H13V13H21.6667ZM45.5 4.33333H58.5C59.696 4.33333 60.6667 5.304 60.6667 6.5V19.5C60.6667 20.696 61.6373 21.6667 62.8333 21.6667C64.0293 21.6667 65 20.696 65 19.5V6.5C65 2.90983 62.0902 0 58.5 0H45.5C44.304 0 43.3333 0.970667 43.3333 2.16667C43.3333 3.36267 44.304 4.33333 45.5 4.33333ZM32.5 13H52V19.5C52 20.696 52.9707 21.6667 54.1667 21.6667C55.3627 21.6667 56.3333 20.696 56.3333 19.5V10.8333C56.3333 9.63733 55.3627 8.66667 54.1667 8.66667H32.5C31.304 8.66667 30.3333 9.63733 30.3333 10.8333C30.3333 12.0293 31.304 13 32.5 13Z" fill="#6C7278"/>
</svg>
