<svg width="120" height="120" viewBox="0 0 120 120" fill="none" xmlns="http://www.w3.org/2000/svg">
<path d="M115 40C112.24 40 110 37.765 110 35V15C110 12.24 107.755 10 105 10H85C82.24 10 80 7.765 80 5C80 2.235 82.24 0 85 0H105C113.27 0 120 6.73 120 15V35C120 37.765 117.76 40 115 40Z" fill="#253368" fill-opacity="0.901961"/>
<path d="M105 120H85C82.24 120 80 117.765 80 115C80 112.235 82.24 110 85 110H105C107.755 110 110 107.76 110 105V85C110 82.235 112.24 80 115 80C117.76 80 120 82.235 120 85V105C120 113.27 113.27 120 105 120Z" fill="#253368" fill-opacity="0.901961"/>
<path d="M35 120H15C6.73 120 0 113.27 0 105V85C0 82.235 2.24 80 5 80C7.76 80 10 82.235 10 85V105C10 107.76 12.245 110 15 110H35C37.76 110 40 112.235 40 115C40 117.765 37.76 120 35 120Z" fill="#253368" fill-opacity="0.901961"/>
<path d="M5 40C2.24 40 0 37.765 0 35V15C0 6.73 6.73 0 15 0H35C37.76 0 40 2.235 40 5C40 7.765 37.76 10 35 10H15C12.245 10 10 12.24 10 15V35C10 37.765 7.76 40 5 40Z" fill="#253368" fill-opacity="0.901961"/>
<path d="M90 55C87.24 55 85 52.765 85 50V35H35V50C35 52.765 32.76 55 30 55C27.24 55 25 52.765 25 50V35C25 29.485 29.485 25 35 25H85C90.515 25 95 29.485 95 35V50C95 52.765 92.76 55 90 55Z" fill="#253368" fill-opacity="0.901961"/>
<path d="M105 70C105 72.765 102.76 75 100 75H95V85C95 90.515 90.515 95 85 95H35C29.485 95 25 90.515 25 85V75H20C17.24 75 15 72.765 15 70C15 67.235 17.24 65 20 65H100C102.76 65 105 67.235 105 70Z" fill="#253368" fill-opacity="0.901961"/>
</svg>
