<svg width="54" height="54" viewBox="0 0 54 54" fill="none" xmlns="http://www.w3.org/2000/svg">
<path d="M51.0389 21.1365L46.8087 20.5987C46.4599 19.5255 46.0302 18.4905 45.5284 17.5072L48.1408 14.1435C49.1983 12.7822 49.0745 10.8608 47.8662 9.69075L44.3223 6.147C43.141 4.9275 41.2195 4.806 39.8559 5.86125L36.4965 8.4735C35.5132 7.97175 34.4782 7.542 33.4026 7.19325L32.8649 2.97C32.6624 1.27575 31.2245 0 29.5212 0H24.481C22.7777 0 21.3399 1.27575 21.1374 2.96325L20.5996 7.19325C19.5241 7.542 18.489 7.9695 17.5057 8.4735L14.1441 5.86125C12.785 4.806 10.8635 4.9275 9.69115 6.13575L6.14726 9.67725C4.9277 10.8608 4.80395 12.7823 5.86149 14.1458L8.47385 17.5072C7.96983 18.4905 7.54231 19.5255 7.19355 20.5987L2.97012 21.1365C1.2758 21.339 0 22.7768 0 24.48V29.52C0 31.2232 1.2758 32.661 2.96337 32.8635L7.19355 33.4012C7.54231 34.4745 7.97208 35.5095 8.47385 36.4927L5.86149 39.8565C4.80395 41.2178 4.9277 43.1393 6.136 44.3092L9.6799 47.853C10.8635 49.0702 12.7828 49.1917 14.1463 48.1365L17.508 45.5243C18.4913 46.0282 19.5263 46.458 20.5996 46.8045L21.1374 51.0255C21.3399 52.7242 22.7777 54 24.481 54H29.5212C31.2245 54 32.6624 52.7243 32.8649 51.0368L33.4026 46.8067C34.4759 46.458 35.511 46.0282 36.4943 45.5265L39.8582 48.1388C41.2195 49.1963 43.141 49.0725 44.3111 47.8643L47.855 44.3205C49.0745 43.137 49.1983 41.2177 48.1408 39.8542L45.5284 36.4927C46.0324 35.5095 46.4622 34.4745 46.8087 33.4012L51.0299 32.8635C52.7242 32.661 54 31.2232 54 29.52V24.48C54.0022 22.7768 52.7264 21.339 51.0389 21.1365ZM27.0011 38.25C20.7976 38.25 15.7507 33.2033 15.7507 27C15.7507 20.7967 20.7976 15.75 27.0011 15.75C33.2046 15.75 38.2516 20.7967 38.2516 27C38.2516 33.2033 33.2046 38.25 27.0011 38.25Z" fill="white"/>
</svg>
