<svg width="41" height="41" viewBox="0 0 41 41" fill="none" xmlns="http://www.w3.org/2000/svg">
<g clip-path="url(#clip0_11_144)">
<path d="M37.5832 0.000305176H23.3824C22.443 0.000305176 21.13 0.544532 20.4663 1.20777L0.997041 20.6769C-0.332347 22.0048 -0.332347 24.1819 0.997041 25.5082L15.4935 40.0041C16.8199 41.332 18.9949 41.332 20.3233 40.0026L39.7925 20.5365C40.4557 19.8733 41 18.5583 41 17.6209V3.41711C41 1.53829 39.4619 0.000305176 37.5832 0.000305176ZM30.7495 13.667C28.8624 13.667 27.3326 12.1357 27.3326 10.2502C27.3326 8.3617 28.8624 6.83342 30.7495 6.83342C32.6365 6.83342 34.1668 8.3617 34.1668 10.2502C34.1669 12.1357 32.6365 13.667 30.7495 13.667Z" fill="white"/>
</g>
<defs>
<clipPath id="clip0_11_144">
<rect width="41" height="41" fill="white"/>
</clipPath>
</defs>
</svg>
